<?xml version="1.0" standalone="no"?>
<!DOCTYPE svg PUBLIC "-//W3C//DTD SVG 20010904//EN"
 "http://www.w3.org/TR/2001/REC-SVG-20010904/DTD/svg10.dtd">
<svg version="1.0" xmlns="http://www.w3.org/2000/svg"
 width="1897.000000pt" height="720.000000pt" viewBox="0 0 1897.000000 720.000000"
 preserveAspectRatio="xMidYMid meet">
<metadata>
Created by potrace 1.12, written by Peter Selinger 2001-2015
</metadata>
<g transform="translate(0.000000,720.000000) scale(0.100000,-0.100000)"
fill="#f24704" stroke="none">
<path d="M0 3600 l0 -3600 9485 0 9485 0 0 1163 c0 1100 -1 1163 -18 1177 -28
24 -142 100 -149 100 -4 0 -14 7 -24 16 -19 17 -64 44 -119 69 -19 10 -42 23
-50 30 -22 20 -291 126 -319 127 -14 0 -41 7 -60 15 -20 9 -49 17 -66 19 -16
2 -41 6 -55 8 -79 14 -139 18 -255 18 -71 0 -146 -3 -165 -7 -19 -3 -45 -8
-58 -10 -139 -26 -196 -43 -320 -98 -56 -26 -109 -53 -118 -62 -8 -8 -20 -15
-26 -15 -13 0 -118 -69 -146 -98 -13 -12 -28 -20 -33 -17 -5 4 -9 -1 -9 -9 0
-9 -3 -16 -7 -16 -7 0 -25 -14 -79 -59 -7 -5 -15 -7 -18 -4 -3 4 -6 1 -6 -6 0
-15 -63 -75 -173 -163 -70 -56 -94 -77 -136 -118 -26 -25 -52 -46 -60 -48 -7
-1 -32 -22 -55 -45 -22 -23 -47 -43 -54 -45 -7 -1 -24 -12 -37 -25 -33 -31
-46 -41 -80 -63 -17 -10 -40 -28 -51 -39 -12 -11 -31 -27 -44 -35 -12 -8 -34
-25 -48 -37 -15 -13 -30 -23 -33 -23 -5 0 -27 -17 -69 -52 -8 -7 -16 -11 -18
-9 -4 4 -29 -12 -62 -39 -10 -8 -28 -22 -40 -30 -12 -8 -28 -20 -35 -27 -7 -7
-32 -22 -56 -35 -24 -12 -48 -26 -54 -30 -5 -5 -21 -17 -34 -28 -13 -11 -28
-20 -32 -20 -4 0 -15 -7 -23 -16 -9 -8 -25 -17 -36 -19 -11 -2 -27 -11 -35
-19 -8 -8 -24 -18 -35 -21 -11 -3 -20 -10 -20 -14 0 -5 -13 -14 -30 -21 -16
-7 -30 -17 -30 -22 0 -5 -4 -7 -9 -4 -5 3 -26 -6 -47 -21 -22 -14 -51 -30 -66
-35 -16 -6 -28 -13 -28 -18 0 -4 -22 -17 -50 -29 -27 -12 -50 -27 -50 -33 0
-6 -3 -8 -7 -5 -3 4 -17 0 -30 -9 -14 -8 -34 -17 -46 -19 -11 -3 -23 -9 -26
-14 -4 -5 -38 -24 -76 -41 -38 -17 -72 -35 -75 -39 -7 -10 -120 -62 -120 -55
0 3 -16 -4 -35 -16 -19 -12 -35 -19 -35 -15 0 4 -20 -5 -45 -19 -25 -15 -45
-25 -45 -22 0 3 -49 -17 -109 -44 -60 -26 -111 -46 -114 -44 -2 3 -31 -7 -63
-21 -33 -15 -79 -33 -104 -40 -25 -7 -61 -18 -80 -25 -66 -24 -84 -29 -118
-35 -13 -2 -34 -11 -48 -20 -14 -9 -28 -14 -31 -11 -3 3 -15 0 -26 -5 -11 -6
-29 -13 -41 -15 -11 -1 -48 -10 -81 -17 -62 -15 -191 -44 -235 -54 -14 -3 -29
-6 -35 -7 -44 -11 -103 -21 -175 -31 -19 -3 -52 -7 -72 -10 -21 -3 -55 -7 -75
-10 -163 -23 -235 -27 -483 -28 -218 0 -316 4 -430 18 -89 11 -148 20 -205 29
-16 3 -46 7 -66 10 -20 2 -46 9 -58 16 -12 6 -25 8 -30 6 -5 -3 -24 0 -42 8
-19 7 -39 12 -45 9 -6 -2 -32 6 -58 17 -26 11 -51 18 -56 15 -4 -2 -47 11 -95
31 -48 19 -92 33 -99 31 -13 -4 -193 67 -215 86 -9 8 -53 28 -98 46 -45 18
-87 38 -92 45 -6 7 -29 19 -51 26 -22 7 -40 17 -40 22 0 5 -16 16 -36 24 -19
8 -58 30 -85 49 -27 19 -53 35 -57 35 -5 0 -17 9 -27 20 -10 11 -22 20 -27 20
-12 0 -71 42 -81 58 -4 6 -15 12 -23 12 -8 0 -17 7 -20 15 -4 8 -11 15 -18 15
-6 0 -27 15 -48 33 -79 70 -106 93 -148 127 -25 19 -70 60 -101 90 -32 30 -79
76 -106 101 -67 64 -234 252 -323 365 -25 31 -51 62 -57 70 -7 7 -13 17 -13
22 0 4 -11 19 -25 32 -14 13 -25 28 -25 32 0 5 -6 15 -12 22 -7 8 -20 24 -28
36 -8 13 -34 49 -57 81 -24 33 -43 62 -43 65 0 4 -25 44 -55 89 -30 45 -55 86
-55 92 0 6 -4 13 -8 15 -10 4 -132 221 -132 236 0 5 -4 12 -9 14 -8 3 -118
225 -157 318 -10 25 -22 47 -26 50 -11 9 -118 252 -118 270 0 9 -22 67 -50
129 -28 62 -50 119 -50 127 0 7 -12 39 -26 71 -14 32 -28 70 -30 86 -2 15 -13
45 -25 68 -11 23 -18 43 -15 46 3 3 -6 30 -20 61 -13 30 -22 57 -20 59 2 3 -9
34 -25 70 -16 36 -27 68 -25 70 2 3 -9 34 -25 70 -16 36 -27 68 -25 70 2 3 -9
34 -25 70 -16 36 -29 72 -29 80 0 8 -16 51 -35 95 -20 44 -34 83 -31 85 2 3
-16 50 -40 105 -25 55 -43 102 -40 105 2 2 -23 66 -56 141 -34 75 -62 146 -63
157 -4 25 -345 818 -355 825 -5 3 -29 55 -56 115 -26 61 -53 117 -60 125 -6 8
-26 49 -43 90 -18 41 -38 81 -45 90 -7 8 -25 44 -40 80 -15 36 -31 67 -34 70
-4 3 -30 50 -57 105 -27 55 -52 102 -56 105 -4 3 -17 26 -29 50 -12 25 -34 68
-50 95 -16 28 -36 64 -45 80 -8 17 -26 46 -38 67 -66 108 -104 173 -116 199
l-15 29 -3758 0 -3758 0 0 -3600z"/>
</g>
</svg>
