<svg id="svg" xmlns="http://www.w3.org/2000/svg" xmlns:xlink="http://www.w3.org/1999/xlink" width="400" height="18.90600106213489" viewBox="0, 0, 400,18.90600106213489"><g id="svgg"><path id="path0" d="M19.862 0.316 C 14.377 1.288,9.736 3.493,4.485 7.623 C 3.271 8.577,1.766 9.664,1.139 10.039 L 0.000 10.721 0.000 14.813 L 0.000 18.906 200.000 18.906 L 400.000 18.906 400.000 15.642 L 400.000 12.378 398.991 12.003 C 397.105 11.301,394.375 9.783,392.884 8.608 C 389.336 5.811,388.317 5.082,386.546 4.074 C 375.072 -2.464,362.374 -1.180,351.275 7.640 C 341.629 15.305,331.217 15.252,322.100 7.494 C 311.771 -1.296,297.036 -2.422,285.975 4.734 C 285.163 5.259,283.219 6.663,281.655 7.853 C 272.393 14.902,262.539 15.175,254.169 8.614 C 250.539 5.769,249.571 5.078,247.786 4.054 C 236.321 -2.520,224.422 -1.291,212.463 7.703 C 202.307 15.341,192.519 15.275,183.363 7.507 C 173.237 -1.083,159.484 -2.390,148.190 4.164 C 146.550 5.115,145.697 5.720,141.795 8.693 C 133.672 14.882,122.920 14.777,115.167 8.433 C 101.423 -2.811,87.381 -2.970,73.394 7.960 C 64.434 14.961,53.877 15.089,45.664 8.296 C 37.678 1.691,28.364 -1.190,19.862 0.316 " stroke="none" fill="#feece5" fill-rule="evenodd"></path></g></svg>